<svg height="512pt" viewBox="0 0 512.52699 512" width="512pt" xmlns="http://www.w3.org/2000/svg"><path d="m267.867188 508.246094c-4.953126 4.851562-12.597657 5.648437-18.445313 1.921875-8.347656-4.632813-15.894531-10.578125-22.351563-17.613281-7.019531-6.449219-12.960937-13.984376-17.589843-22.320313-3.734375-5.851563-2.949219-13.503906 1.898437-18.46875.523438-.523437 1.074219-1.011719 1.65625-1.464844.574219-.449219 1.175782-.859375 1.796875-1.234375 2.40625-6.4375 5.511719-12.597656 9.257813-18.359375 5.382812-8.277343 11.640625-15.949219 18.671875-22.878906-6.53125.921875-13.175781.65625-19.613281-.785156-16.492188-3.605469-31.523438-12.078125-43.148438-24.320313l-.0625-.058594-.0625-.0625c-6.496094 6.871094-13.183594 13.519532-20.054688 19.941407-6.882812 6.402343-14.007812 12.515625-21.371093 18.34375-10.011719 7.871093-20.605469 14.972656-31.691407 21.242187-10.792968 6.109375-21.941406 11.570313-33.386718 16.351563-.566406.25-1.113282.484375-1.65625.714843-.542969.226563-1.074219.445313-1.609375.664063-5.085938 2.683594-11.300781 1.964844-15.644531-1.808594-3.773438-4.34375-4.488282-10.554687-1.804688-15.644531.21875-.527344.441406-1.066406.667969-1.605469.222656-.542969.460937-1.089843.714843-1.65625 4.78125-11.445312 10.238282-22.59375 16.347657-33.386719 6.269531-11.085937 13.375-21.679687 21.242187-31.691406 5.808594-7.375 11.921875-14.5 18.34375-21.371094 6.402344-6.886718 13.050782-13.570312 19.941406-20.054687l-.128906-.128906c-12.242187-11.625-20.714844-26.65625-24.320312-43.148438-1.4375-6.4375-1.703125-13.082031-.785156-19.613281-6.929688 7.03125-14.601563 13.292969-22.875 18.671875-5.765626 3.746094-11.921876 6.851563-18.363282 9.257813-.371094.625-.78125 1.222656-1.230468 1.796874-.453126.582032-.945313 1.132813-1.46875 1.65625-4.953126 4.851563-12.59375 5.648438-18.441407 1.921876-8.347656-4.632813-15.894531-10.582032-22.351562-17.613282-7.03125-6.457031-12.980469-14.003906-17.613281-22.351562-3.726563-5.847656-2.929688-13.492188 1.921874-18.445313 5.875-5.230469 13.996094-7.132812 21.582032-5.058593 9.71875 2.253906 18.578125 7.285156 25.492187 14.476562 1.535157 1.539062 2.984375 3.167969 4.335938 4.871094 1.300781 1.640625 2.511719 3.34375 3.632812 5.109375 10.75-12.242188 22.824219-23.253907 36-32.832031 14.820313-10.144532 30.433594-15.714844 40.757813-5.390626 6.742187 6.761719 13.046875 13.945313 18.875 21.511719 5.207031 6.746094 9.335937 12.851563 12.378906 17.65625 5.726562-12.449219 12.625-24.324219 20.601562-35.460937 8.914063-12.507813 18.859376-24.246094 29.734376-35.085938 11.375-11.4375 23.796874-21.78125 37.109374-30.890625 12.886719-8.683593 26.367188-16.441406 40.351563-23.21875l-24.667969-15.6875-24.664062-15.691406c-.53125-.347656-1.066406-.722656-1.578125-1.121094-.503907-.394531-.980469-.816406-1.433594-1.265625-2.859375-2.847656-4.65625-6.59375-5.085937-10.605468-.28125-2.640626.023437-5.308594.894531-7.8125.875-2.515626 2.308593-4.800782 4.191406-6.683594l38.71875-38.726563c.765625-4.835937 2.347656-9.511719 4.679687-13.820312 2.632813-4.921875 5.984376-9.421875 9.949219-13.355469 6.914063-7.191406 15.769531-12.222656 25.488281-14.476562 7.585938-2.074219 15.707032-.167969 21.582032 5.0625 5.230468 5.871093 7.136718 13.996093 5.058594 21.582031-2.253907 9.71875-7.28125 18.574219-14.476563 25.488281-3.929687 3.960938-8.429687 7.3125-13.351563 9.945312-4.308593 2.332032-8.984374 3.914063-13.824218 4.679688l-11.546875 11.550781-11.550781 11.546875 25.203124 16.035156 25.199219 16.039063c.441407.3125.894531.640625 1.335938.96875.4375.328125.859375.660156 1.234375.972656.15625-.03125.3125-.0625.480468-.089843.175782-.023438.351563-.039063.527344-.039063l9.132813-9.132813 9.132812-9.128906c-3.394531-12.726562-.792969-26.304687 7.0625-36.875 7.648438-8.851562 18.902344-13.757812 30.597657-13.335937 7.640624.910156 15.367187-.746094 21.964843-4.707031 6.84375-5.410157 14.203125-10.140626 21.964844-14.125 6.316406-3.386719 13.324219-5.296876 20.484375-5.578126 4.320312-.113281 8.605469.765626 12.53125 2.566407 3.355469 1.597656 6.058594 4.300781 7.65625 7.65625 1.800781 3.925781 2.679688 8.210937 2.566406 12.53125-.28125 7.160156-2.191406 14.167969-5.578125 20.484375-3.984375 7.761718-8.714843 15.121094-14.125 21.964844-3.960937 6.597656-5.617187 14.324218-4.707031 21.96875.421875 11.691406-4.484375 22.945312-13.335938 30.59375-10.570312 7.855468-24.148437 10.457031-36.875 7.0625l-9.132812 9.136718-9.132812 9.128906-.09375.472657-.09375.46875c.34375.40625.6875.816406 1.027343 1.246093.351563.445313.679688.910157.980469 1.390626l32.070312 50.398437 23.097657-23.097656c.765625-4.839844 2.347656-9.511719 4.679687-13.824219 2.632813-4.917969 5.984375-9.417969 9.945313-13.347656 6.914062-7.191406 15.769531-12.222656 25.492187-14.476563 7.570313-2.550781 15.933594-.589843 21.582032 5.058594 5.648437 5.648437 7.609374 14.011719 5.058593 21.582031-2.253906 9.71875-7.28125 18.574219-14.476562 25.492188-3.929688 3.960937-8.429688 7.3125-13.351563 9.945312-4.3125 2.332032-8.984375 3.914063-13.824218 4.679688l-19.363282 19.359375-19.363281 19.363281c-1.882813 1.882812-4.167969 3.316406-6.683594 4.191406-2.507812.871094-5.175781 1.175782-7.816406.894532-4.011719-.429688-7.757813-2.226563-10.605469-5.085938-.449218-.453125-.871094-.929688-1.261718-1.433594-.402344-.511718-.777344-1.042968-1.121094-1.578125l-31.382813-49.328125c-6.773437 13.984375-14.53125 27.46875-23.214843 40.351563-9.109376 13.308593-19.449219 25.730469-30.886719 37.097656-10.84375 10.890625-22.59375 20.839844-35.113281 29.75-11.144532 7.96875-23.03125 14.839844-35.492188 20.523437 4.800781 3.042969 10.902344 7.171876 17.652344 12.386719 7.585937 5.847657 14.789062 12.167969 21.566406 18.929688 10.328125 10.328125 4.753906 25.9375-5.386719 40.757812-9.582031 13.175781-20.59375 25.25-32.832031 36 1.761719 1.121094 3.46875 2.335938 5.105469 3.632813 1.707031 1.351562 3.332031 2.800781 4.871093 4.339844 7.195313 6.914062 12.222657 15.769531 14.476563 25.488281 2.078125 7.585937.171875 15.707031-5.054687 21.578125zm0 0" fill="#24ae5f"/><g fill="#4c8056"><path d="m342.707031 169.804688c-.824219-.824219-1.476562-1.808594-1.921875-2.890626-.433594-1.066406-.671875-2.203124-.699218-3.351562.03125-.585938.109374-1.164062.234374-1.734375.125-.558594.296876-1.109375.515626-1.636719.183593-.550781.445312-1.074218.769531-1.554687.65625-.945313 1.476562-1.765625 2.421875-2.421875.480468-.328125 1.003906-.585938 1.554687-.769532.53125-.238281 1.089844-.417968 1.660157-.539062.5625-.113281 1.132812-.183594 1.707031-.207031 2.320312.046875 4.527343 1.007812 6.140625 2.675781 1.675781 1.632812 2.652344 3.847656 2.722656 6.1875-.03125.582031-.109375 1.160156-.234375 1.730469-.121094.558593-.292969 1.105469-.511719 1.636719s-.484375 1.042968-.796875 1.527343c-.308593.488281-.671875.9375-1.074219 1.347657-.824218.8125-1.796874 1.453124-2.867187 1.894531-2.148437.96875-4.609375.96875-6.757813 0-1.066406-.4375-2.039062-1.082031-2.863281-1.894531zm0 0"/><path d="m192.976562 319.535156c-.828124-.824218-1.480468-1.808594-1.921874-2.886718-.4375-1.066407-.671876-2.203126-.699219-3.355469.027343-.582031.109375-1.164063.234375-1.734375.121094-.558594.296875-1.105469.515625-1.636719.183593-.550781.441406-1.074219.769531-1.554687.65625-.945313 1.476562-1.765626 2.417969-2.417969.480469-.328125 1.003906-.589844 1.554687-.773438.535156-.238281 1.089844-.417969 1.664063-.539062.5625-.113281 1.132812-.183594 1.707031-.207031 2.320312.046874 4.527344 1.007812 6.140625 2.675781 1.671875 1.632812 2.648437 3.851562 2.722656 6.1875-.03125.582031-.109375 1.160156-.234375 1.730469-.125.558593-.296875 1.105468-.515625 1.636718s-.484375 1.042969-.792969 1.53125c-.308593.484375-.671874.933594-1.078124 1.34375-.820313.8125-1.792969 1.457032-2.863282 1.894532-2.148437.96875-4.609375.96875-6.757812 0-1.070313-.4375-2.042969-1.082032-2.863282-1.894532zm0 0"/><path d="m142.960938 369.550781c-.824219-.824219-1.476563-1.808593-1.921876-2.890625-.433593-1.066406-.671874-2.203125-.699218-3.355468.03125-.582032.109375-1.160157.234375-1.730469.125-.558594.296875-1.109375.515625-1.640625.183594-.550782.445312-1.074219.773437-1.554688.652344-.941406 1.472657-1.761718 2.417969-2.417968.480469-.328126 1.003906-.585938 1.554688-.769532.53125-.238281 1.089843-.421875 1.660156-.539062.5625-.113282 1.132812-.183594 1.707031-.207032 2.320313.046876 4.527344 1.007813 6.140625 2.675782 1.675781 1.628906 2.652344 3.847656 2.722656 6.183594-.027344.585937-.105468 1.164062-.230468 1.734374-.125.558594-.296876 1.105469-.515626 1.636719s-.484374 1.042969-.796874 1.527344c-.308594.488281-.671876.9375-1.078126 1.34375-.820312.8125-1.792968 1.457031-2.863281 1.894531-2.148437.972656-4.609375.972656-6.757812 0-1.066407-.4375-2.039063-1.078125-2.863281-1.890625zm0 0"/><path d="m305.332031 182.210938c-.824219-.824219-1.476562-1.808594-1.921875-2.890626-.433594-1.066406-.671875-2.203124-.699218-3.351562.03125-.582031.109374-1.164062.234374-1.734375.125-.558594.296876-1.109375.515626-1.636719.183593-.550781.445312-1.074218.769531-1.554687.65625-.945313 1.476562-1.765625 2.421875-2.421875.480468-.328125 1.003906-.585938 1.554687-.769532.53125-.238281 1.089844-.417968 1.660157-.539062.5625-.113281 1.132812-.183594 1.707031-.207031 2.320312.046875 4.527343 1.007812 6.140625 2.675781 1.675781 1.632812 2.652344 3.847656 2.722656 6.1875-.027344.582031-.105469 1.160156-.234375 1.730469-.121094.558593-.292969 1.105469-.511719 1.636719s-.484375 1.042968-.796875 1.527343c-.308593.488281-.671875.9375-1.078125 1.347657-.820312.8125-1.792968 1.453124-2.863281 1.894531-2.148437.96875-4.609375.96875-6.757813 0-1.066406-.4375-2.039062-1.082031-2.863281-1.894531zm0 0"/><path d="m330.300781 207.179688c-.824219-.828126-1.480469-1.808594-1.921875-2.890626-.433594-1.066406-.671875-2.203124-.699218-3.355468.03125-.582032.109374-1.160156.234374-1.730469.121094-.558594.296876-1.109375.515626-1.636719.183593-.550781.441406-1.074218.769531-1.554687.65625-.945313 1.476562-1.765625 2.421875-2.421875.480468-.328125 1.003906-.585938 1.554687-.769532.53125-.238281 1.089844-.417968 1.660157-.539062.5625-.113281 1.132812-.183594 1.707031-.207031 2.320312.046875 4.527343 1.007812 6.140625 2.675781 1.675781 1.628906 2.648437 3.847656 2.722656 6.183594-.03125.585937-.109375 1.164062-.234375 1.734375-.121094.558593-.292969 1.105469-.511719 1.636719s-.484375 1.042968-.796875 1.527343c-.308593.488281-.671875.9375-1.078125 1.34375-.820312.8125-1.792968 1.457031-2.863281 1.898438-2.148437.96875-4.609375.96875-6.757813 0-1.066406-.4375-2.042968-1.082031-2.863281-1.894531zm0 0"/><path d="m255.394531 232.152344c-.824219-.824219-1.476562-1.808594-1.917969-2.890625-.4375-1.066407-.675781-2.203125-.703124-3.351563.03125-.585937.109374-1.164062.234374-1.734375.125-.558593.296876-1.105469.515626-1.636719.183593-.550781.445312-1.074218.773437-1.554687.652344-.945313 1.472656-1.765625 2.417969-2.421875.480468-.324219 1.003906-.585938 1.554687-.769531.535157-.238281 1.089844-.417969 1.660157-.539063.5625-.113281 1.132812-.183594 1.707031-.207031 2.320312.046875 4.527343 1.007813 6.140625 2.675781 1.675781 1.632813 2.652344 3.847656 2.722656 6.1875-.027344.582032-.105469 1.160156-.230469 1.730469-.125.558594-.296875 1.105469-.515625 1.636719s-.484375 1.042968-.792968 1.527344c-.3125.488281-.671876.9375-1.078126 1.347656-.824218.8125-1.796874 1.453125-2.863281 1.894531-2.148437.96875-4.609375.96875-6.757812 0-1.070313-.4375-2.042969-1.082031-2.867188-1.894531zm0 0"/><path d="m280.363281 257.117188c-.824219-.828126-1.476562-1.808594-1.921875-2.890626-.433594-1.066406-.671875-2.203124-.699218-3.355468.03125-.582032.109374-1.160156.234374-1.730469.125-.5625.296876-1.109375.515626-1.640625.183593-.550781.445312-1.074219.773437-1.554688.652344-.941406 1.472656-1.761718 2.417969-2.417968.480468-.328125 1.003906-.585938 1.554687-.773438.53125-.238281 1.089844-.417968 1.660157-.535156.5625-.113281 1.132812-.183594 1.707031-.210938 2.320312.046876 4.527343 1.011719 6.140625 2.675782 1.675781 1.632812 2.652344 3.851562 2.722656 6.1875-.027344.582031-.105469 1.160156-.230469 1.730468-.125.5625-.296875 1.109376-.515625 1.636719-.21875.535157-.484375 1.046875-.792968 1.53125-.3125.484375-.671876.9375-1.078126 1.34375-.824218.8125-1.796874 1.457031-2.867187 1.894531-2.148437.96875-4.609375.96875-6.757813 0-1.066406-.4375-2.039062-1.078124-2.863281-1.890624zm0 0"/><path d="m205.460938 282.085938c-.828126-.828126-1.480469-1.808594-1.921876-2.890626-.4375-1.066406-.671874-2.203124-.699218-3.355468.027344-.582032.109375-1.160156.234375-1.730469.121093-.5625.292969-1.109375.515625-1.640625.183594-.550781.441406-1.074219.769531-1.554688.65625-.945312 1.476563-1.761718 2.417969-2.417968.480468-.328125 1.003906-.585938 1.558594-.773438.53125-.238281 1.085937-.417968 1.660156-.535156.5625-.117188 1.132812-.1875 1.707031-.210938 2.320313.046876 4.527344 1.011719 6.140625 2.675782 1.675781 1.632812 2.648438 3.851562 2.722656 6.1875-.03125.582031-.109375 1.160156-.234375 1.730468-.125.558594-.296875 1.109376-.515625 1.636719-.21875.535157-.484375 1.046875-.792968 1.53125-.3125.484375-.671876.933594-1.078126 1.34375-.820312.8125-1.792968 1.457031-2.863281 1.894531-2.148437.96875-4.609375.96875-6.757812 0-1.070313-.4375-2.042969-1.082031-2.863281-1.890624zm0 0"/><path d="m230.429688 307.054688c-.828126-.828126-1.480469-1.8125-1.921876-2.890626-.4375-1.066406-.675781-2.203124-.699218-3.355468.027344-.582032.105468-1.164063.230468-1.730469.125-.5625.296876-1.109375.515626-1.640625.1875-.550781.445312-1.074219.773437-1.554688.65625-.945312 1.472656-1.761718 2.417969-2.417968.480468-.328125 1.003906-.589844 1.554687-.773438.535157-.238281 1.089844-.417968 1.660157-.539062.5625-.113282 1.136718-.183594 1.707031-.207032 2.320312.046876 4.527343 1.007813 6.144531 2.675782 1.671875 1.632812 2.648438 3.851562 2.71875 6.1875-.027344.582031-.105469 1.160156-.230469 1.730468-.125.558594-.296875 1.105469-.515625 1.636719s-.484375 1.046875-.792968 1.53125c-.3125.484375-.671876.933594-1.078126 1.34375-.820312.8125-1.796874 1.457031-2.863281 1.894531-2.148437.96875-4.609375.96875-6.757812 0-1.070313-.4375-2.042969-1.082031-2.863281-1.890624zm0 0"/><path d="m155.523438 332.023438c-.824219-.828126-1.476563-1.8125-1.921876-2.890626-.433593-1.066406-.671874-2.203124-.699218-3.355468.03125-.582032.109375-1.164063.234375-1.734375.125-.558594.296875-1.105469.515625-1.636719.183594-.550781.445312-1.074219.769531-1.554688.65625-.945312 1.476563-1.765624 2.421875-2.421874.480469-.324219 1.003906-.585938 1.554688-.769532.53125-.238281 1.089843-.417968 1.660156-.539062.5625-.113282 1.132812-.183594 1.707031-.207032 2.320313.046876 4.527344 1.007813 6.140625 2.675782 1.675781 1.632812 2.648438 3.851562 2.722656 6.1875-.03125.582031-.109375 1.160156-.234375 1.730468-.121093.558594-.292969 1.105469-.511719 1.636719s-.484374 1.042969-.796874 1.53125c-.308594.484375-.671876.933594-1.078126 1.34375-.820312.8125-1.792968 1.453125-2.863281 1.894531-2.148437.96875-4.609375.96875-6.757812 0-1.066407-.4375-2.039063-1.082031-2.863281-1.890624zm0 0"/><path d="m180.492188 356.988281c-.828126-.824219-1.480469-1.808593-1.921876-2.890625-.433593-1.066406-.671874-2.203125-.699218-3.351562.027344-.585938.109375-1.164063.234375-1.734375.125-.558594.296875-1.109375.515625-1.636719.183594-.550781.441406-1.074219.769531-1.554688.65625-.945312 1.476563-1.765624 2.421875-2.421874.480469-.328126 1-.585938 1.554688-.769532.53125-.238281 1.089843-.417968 1.660156-.539062.5625-.113282 1.132812-.183594 1.707031-.207032 2.320313.046876 4.527344 1.007813 6.140625 2.675782 1.675781 1.632812 2.648438 3.847656 2.722656 6.1875-.03125.582031-.109375 1.160156-.234375 1.730468-.125.558594-.296875 1.105469-.511719 1.636719-.21875.53125-.484374 1.042969-.796874 1.527344-.308594.488281-.671876.9375-1.074219 1.347656-.824219.8125-1.796875 1.453125-2.867188 1.894531-2.148437.96875-4.609375.96875-6.757812 0-1.070313-.4375-2.042969-1.082031-2.863281-1.894531zm0 0"/><path d="m267.878906 194.695312c-.824218-.824218-1.476562-1.808593-1.921875-2.890624-.433593-1.066407-.671875-2.203126-.699219-3.351563.03125-.585937.109376-1.164063.234376-1.734375.125-.558594.296874-1.109375.515624-1.636719.183594-.550781.445313-1.074219.773438-1.554687.652344-.945313 1.472656-1.765625 2.417969-2.421875.480469-.328125 1.003906-.585938 1.554687-.769531.53125-.238282 1.089844-.417969 1.660156-.539063.5625-.113281 1.132813-.183594 1.707032-.207031 2.320312.046875 4.527344 1.007812 6.144531 2.675781 1.671875 1.632813 2.648437 3.847656 2.71875 6.1875-.027344.582031-.105469 1.160156-.230469 1.730469-.125.558594-.296875 1.105468-.515625 1.636718s-.484375 1.042969-.792969 1.527344c-.3125.488282-.671874.9375-1.078124 1.347656-.820313.8125-1.796876 1.453126-2.863282 1.894532-2.148437.96875-4.609375.96875-6.757812 0-1.070313-.4375-2.042969-1.082032-2.867188-1.894532zm0 0"/><path d="m292.847656 219.664062c-.824218-.824218-1.476562-1.808593-1.921875-2.890624-.433593-1.066407-.671875-2.203126-.699219-3.355469.03125-.582031.109376-1.160157.234376-1.730469.125-.558594.296874-1.109375.515624-1.636719.183594-.550781.445313-1.074219.769532-1.554687.65625-.945313 1.476562-1.765625 2.421875-2.421875.480469-.324219 1-.585938 1.554687-.769531.53125-.238282 1.089844-.417969 1.660156-.539063.5625-.113281 1.132813-.183594 1.707032-.207031 2.320312.046875 4.527344 1.007812 6.140625 2.675781 1.675781 1.632813 2.648437 3.847656 2.722656 6.1875-.03125.582031-.109375 1.160156-.234375 1.730469-.121094.558594-.292969 1.105468-.511719 1.636718s-.484375 1.042969-.796875 1.527344c-.308594.488282-.671875.9375-1.078125 1.347656-.820312.8125-1.792969 1.453126-2.863281 1.894532-2.148438.96875-4.609375.96875-6.757812 0-1.066407-.4375-2.042969-1.082032-2.863282-1.894532zm0 0"/><path d="m317.816406 244.632812c-.824218-.828124-1.476562-1.808593-1.921875-2.890624-.433593-1.066407-.671875-2.203126-.699219-3.355469.03125-.582031.109376-1.160157.234376-1.730469.125-.5625.296874-1.109375.515624-1.640625.183594-.550781.445313-1.074219.769532-1.554687.65625-.941407 1.476562-1.761719 2.421875-2.417969.480469-.328125 1.003906-.585938 1.554687-.773438.53125-.234375 1.089844-.417969 1.660156-.535156.5625-.113281 1.132813-.183594 1.707032-.210937 2.320312.046874 4.527344 1.011718 6.140625 2.675781 1.675781 1.632812 2.652343 3.851562 2.722656 6.1875-.03125.582031-.105469 1.164062-.234375 1.730469-.121094.5625-.292969 1.109374-.511719 1.640624s-.484375 1.042969-.796875 1.527344c-.308594.484375-.671875.9375-1.078125 1.34375-.820312.8125-1.792969 1.457032-2.863281 1.894532-2.148438.96875-4.609375.96875-6.757812 0-1.066407-.4375-2.039063-1.078126-2.863282-1.890626zm0 0"/><path d="m217.949219 244.632812c-.828125-.828124-1.480469-1.808593-1.921875-2.890624-.433594-1.066407-.671875-2.203126-.699219-3.355469.03125-.582031.109375-1.160157.234375-1.730469.121094-.5625.296875-1.109375.515625-1.640625.183594-.550781.441406-1.074219.769531-1.554687.65625-.941407 1.476563-1.761719 2.417969-2.417969.480469-.328125 1.003906-.585938 1.558594-.773438.53125-.234375 1.085937-.417969 1.660156-.535156.5625-.113281 1.132813-.183594 1.707031-.210937 2.320313.046874 4.527344 1.011718 6.140625 2.675781 1.675781 1.632812 2.648438 3.851562 2.722657 6.1875-.03125.582031-.109376 1.164062-.234376 1.730469-.125.5625-.296874 1.109374-.515624 1.640624s-.484376 1.042969-.792969 1.527344c-.3125.484375-.671875.9375-1.078125 1.34375-.820313.8125-1.792969 1.457032-2.863282 1.894532-2.148437.96875-4.609374.96875-6.757812 0-1.070312-.4375-2.042969-1.078126-2.863281-1.890626zm0 0"/><path d="m242.910156 269.601562c-.824218-.828124-1.476562-1.808593-1.917968-2.890624-.4375-1.066407-.675782-2.203126-.703126-3.355469.03125-.582031.109376-1.160157.234376-1.730469.125-.5625.296874-1.109375.515624-1.640625.1875-.550781.445313-1.074219.773438-1.554687.65625-.945313 1.476562-1.761719 2.417969-2.417969.480469-.328125 1.003906-.589844 1.554687-.773438.535156-.238281 1.089844-.417969 1.664063-.535156.5625-.117187 1.132812-.183594 1.703125-.210937 2.320312.046874 4.527344 1.011718 6.144531 2.675781 1.671875 1.632812 2.648437 3.851562 2.71875 6.1875-.027344.582031-.105469 1.164062-.230469 1.730469-.125.5625-.296875 1.109374-.515625 1.636718-.21875.535156-.484375 1.046875-.792969 1.53125-.3125.484375-.671874.9375-1.078124 1.34375-.820313.8125-1.792969 1.457032-2.863282 1.894532-2.148437.96875-4.609375.96875-6.757812 0-1.070313-.4375-2.042969-1.078126-2.867188-1.890626zm0 0"/><path d="m267.878906 294.570312c-.824218-.828124-1.476562-1.8125-1.921875-2.890624-.433593-1.066407-.671875-2.203126-.699219-3.355469.03125-.582031.109376-1.160157.234376-1.730469.125-.5625.296874-1.109375.515624-1.640625.183594-.550781.445313-1.074219.773438-1.554687.652344-.945313 1.472656-1.761719 2.417969-2.417969.480469-.328125 1.003906-.589844 1.554687-.773438.53125-.238281 1.089844-.417969 1.660156-.539062.5625-.113281 1.132813-.183594 1.707032-.207031 2.320312.046874 4.527344 1.007812 6.144531 2.675781 1.671875 1.632812 2.648437 3.851562 2.71875 6.1875-.027344.582031-.105469 1.160156-.230469 1.730469-.125.558593-.296875 1.109374-.515625 1.636718-.21875.535156-.484375 1.046875-.792969 1.53125-.3125.484375-.671874.933594-1.078124 1.34375-.820313.8125-1.796876 1.457032-2.863282 1.894532-2.148437.96875-4.609375.96875-6.757812 0-1.070313-.4375-2.042969-1.082032-2.867188-1.890626zm0 0"/></g></svg>